<svg width="35" height="35" viewBox="0 0 35 35" fill="none" xmlns="http://www.w3.org/2000/svg">
<path d="M28.2041 21.1313L26.7457 18.7104C26.4395 18.1708 26.1624 17.15 26.1624 16.5521V12.8625C26.1624 9.43542 24.1499 6.475 21.2478 5.08958C20.4895 3.74792 19.0895 2.91667 17.4853 2.91667C15.8957 2.91667 14.4666 3.77708 13.7083 5.13333C10.8645 6.54792 8.89579 9.47917 8.89579 12.8625V16.5521C8.89579 17.15 8.61871 18.1708 8.31246 18.6958L6.83954 21.1313C6.25621 22.1083 6.12496 23.1875 6.48954 24.1792C6.83954 25.1562 7.67079 25.9146 8.74996 26.2792C11.5791 27.2417 14.5541 27.7083 17.5291 27.7083C20.5041 27.7083 23.4791 27.2417 26.3082 26.2938C27.3291 25.9583 28.1166 25.1854 28.4957 24.1792C28.8749 23.1729 28.7728 22.0646 28.2041 21.1313Z" fill="white"/>
<path d="M21.6267 29.1812C21.0142 30.8729 19.3954 32.0833 17.4996 32.0833C16.3475 32.0833 15.21 31.6167 14.4079 30.7854C13.9413 30.3479 13.5913 29.7646 13.3871 29.1667C13.5767 29.1958 13.7663 29.2104 13.9704 29.2396C14.3058 29.2833 14.6558 29.3271 15.0058 29.3562C15.8371 29.4292 16.6829 29.4729 17.5288 29.4729C18.36 29.4729 19.1913 29.4292 20.0079 29.3562C20.3142 29.3271 20.6204 29.3125 20.9121 29.2687C21.1454 29.2396 21.3788 29.2104 21.6267 29.1812Z" fill="white"/>
</svg>
