<svg width="104" height="104" viewBox="0 0 104 104" fill="none" xmlns="http://www.w3.org/2000/svg">
<circle cx="52.0336" cy="51.8114" r="46.5" stroke="#E0DEDE" stroke-opacity="0.15" stroke-width="10"/>
<mask id="path-2-inside-1_81_378" fill="white">
<path d="M98.5336 51.8114C101.295 51.8114 103.559 54.0553 103.291 56.8037C102.14 68.6298 96.9238 79.7532 88.4496 88.2274C78.7915 97.8855 65.6922 103.311 52.0336 103.311C38.3749 103.311 25.2757 97.8855 15.6176 88.2274C7.14336 79.7532 1.92739 68.6298 0.775963 56.8038C0.508365 54.0553 2.77215 51.8114 5.53357 51.8114H7.24382C10.0052 51.8114 12.2114 54.0588 12.5574 56.7984C13.6581 65.5123 17.6212 73.6702 23.898 79.947C31.36 87.409 41.4807 91.6011 52.0336 91.6011C62.5865 91.6011 72.7071 87.409 80.1692 79.947C86.4459 73.6702 90.4091 65.5123 91.5097 56.7984C91.8558 54.0588 94.0619 51.8114 96.8233 51.8114H98.5336Z"/>
</mask>
<path d="M98.5336 51.8114C101.295 51.8114 103.559 54.0553 103.291 56.8037C102.14 68.6298 96.9238 79.7532 88.4496 88.2274C78.7915 97.8855 65.6922 103.311 52.0336 103.311C38.3749 103.311 25.2757 97.8855 15.6176 88.2274C7.14336 79.7532 1.92739 68.6298 0.775963 56.8038C0.508365 54.0553 2.77215 51.8114 5.53357 51.8114H7.24382C10.0052 51.8114 12.2114 54.0588 12.5574 56.7984C13.6581 65.5123 17.6212 73.6702 23.898 79.947C31.36 87.409 41.4807 91.6011 52.0336 91.6011C62.5865 91.6011 72.7071 87.409 80.1692 79.947C86.4459 73.6702 90.4091 65.5123 91.5097 56.7984C91.8558 54.0588 94.0619 51.8114 96.8233 51.8114H98.5336Z" stroke="#2F89FF" stroke-width="20" stroke-linejoin="round" mask="url(#path-2-inside-1_81_378)"/>
<path d="M43.48 48.904H38.12V52.088C38.344 51.7893 38.6747 51.5387 39.112 51.336C39.56 51.1333 40.0347 51.032 40.536 51.032C41.432 51.032 42.1573 51.224 42.712 51.608C43.2773 51.992 43.6773 52.4773 43.912 53.064C44.1573 53.6507 44.28 54.2693 44.28 54.92C44.28 55.7093 44.1253 56.4133 43.816 57.032C43.5173 57.64 43.064 58.12 42.456 58.472C41.8587 58.824 41.1227 59 40.248 59C39.0853 59 38.152 58.712 37.448 58.136C36.744 57.56 36.3227 56.7973 36.184 55.848H37.96C38.0773 56.3493 38.3387 56.7493 38.744 57.048C39.1493 57.336 39.656 57.48 40.264 57.48C41.0213 57.48 41.5867 57.2507 41.96 56.792C42.344 56.3333 42.536 55.7253 42.536 54.968C42.536 54.2 42.344 53.6133 41.96 53.208C41.576 52.792 41.0107 52.584 40.264 52.584C39.7413 52.584 39.2987 52.7173 38.936 52.984C38.584 53.24 38.328 53.592 38.168 54.04H36.44V47.304H43.48V48.904ZM46.1788 53.016C46.1788 51.1707 46.4881 49.7307 47.1068 48.696C47.7361 47.6507 48.8134 47.128 50.3388 47.128C51.8641 47.128 52.9361 47.6507 53.5548 48.696C54.1841 49.7307 54.4988 51.1707 54.4988 53.016C54.4988 54.8827 54.1841 56.344 53.5548 57.4C52.9361 58.4453 51.8641 58.968 50.3388 58.968C48.8134 58.968 47.7361 58.4453 47.1068 57.4C46.4881 56.344 46.1788 54.8827 46.1788 53.016ZM52.7068 53.016C52.7068 52.152 52.6481 51.4213 52.5308 50.824C52.4241 50.2267 52.2001 49.7413 51.8588 49.368C51.5174 48.984 51.0108 48.792 50.3388 48.792C49.6668 48.792 49.1601 48.984 48.8188 49.368C48.4774 49.7413 48.2481 50.2267 48.1308 50.824C48.0241 51.4213 47.9708 52.152 47.9708 53.016C47.9708 53.912 48.0241 54.664 48.1308 55.272C48.2374 55.88 48.4614 56.3707 48.8028 56.744C49.1548 57.1173 49.6668 57.304 50.3388 57.304C51.0108 57.304 51.5174 57.1173 51.8588 56.744C52.2108 56.3707 52.4401 55.88 52.5468 55.272C52.6534 54.664 52.7068 53.912 52.7068 53.016ZM56.1408 50.152C56.1408 49.3733 56.3648 48.7653 56.8128 48.328C57.2714 47.88 57.8581 47.656 58.5728 47.656C59.2874 47.656 59.8688 47.88 60.3168 48.328C60.7754 48.7653 61.0048 49.3733 61.0048 50.152C61.0048 50.9307 60.7754 51.544 60.3168 51.992C59.8688 52.44 59.2874 52.664 58.5728 52.664C57.8581 52.664 57.2714 52.44 56.8128 51.992C56.3648 51.544 56.1408 50.9307 56.1408 50.152ZM65.9008 47.864L59.5168 59H57.7248L64.1088 47.864H65.9008ZM58.5728 48.76C57.9008 48.76 57.5648 49.224 57.5648 50.152C57.5648 51.0907 57.9008 51.56 58.5728 51.56C58.8928 51.56 59.1381 51.448 59.3088 51.224C59.4901 50.9893 59.5807 50.632 59.5807 50.152C59.5807 49.224 59.2448 48.76 58.5728 48.76ZM62.6528 56.696C62.6528 55.9173 62.8768 55.3093 63.3248 54.872C63.7834 54.424 64.3701 54.2 65.0848 54.2C65.7888 54.2 66.3648 54.424 66.8128 54.872C67.2714 55.3093 67.5008 55.9173 67.5008 56.696C67.5008 57.4747 67.2714 58.088 66.8128 58.536C66.3648 58.984 65.7888 59.208 65.0848 59.208C64.3701 59.208 63.7834 58.984 63.3248 58.536C62.8768 58.088 62.6528 57.4747 62.6528 56.696ZM65.0688 55.304C64.3968 55.304 64.0608 55.768 64.0608 56.696C64.0608 57.624 64.3968 58.088 65.0688 58.088C65.7408 58.088 66.0768 57.624 66.0768 56.696C66.0768 55.768 65.7408 55.304 65.0688 55.304Z" fill="white"/>
</svg>
