<svg width="36" height="24" viewBox="0 0 36 24" fill="none" xmlns="http://www.w3.org/2000/svg">
<path d="M30.5063 9.33751C32.6631 10.4574 32.6631 13.5426 30.5063 14.6625L20.0017 20.1168C18.0047 21.1537 15.6193 19.7045 15.6193 17.4543L15.6193 6.54569C15.6193 4.29548 18.0047 2.84627 20.0017 3.8832L30.5063 9.33751Z" fill="white"/>
<path d="M0.825806 12.9412C0.825806 11.3168 2.14262 10 3.76698 10H7.20734L12.0935 10.3828C12.9376 10.449 13.5889 11.1533 13.5889 12C13.5889 12.8467 12.9376 13.551 12.0935 13.6172L7.20734 14H1.88463C1.29986 14 0.825806 13.5259 0.825806 12.9412Z" fill="white"/>
</svg>
