<svg width="41" height="29" viewBox="0 0 41 29" fill="none" xmlns="http://www.w3.org/2000/svg">
<g filter="url(#filter0_d_109_3)">
<path d="M34.5063 9.33751C36.6631 10.4574 36.6631 13.5426 34.5063 14.6625L24.0017 20.1168C22.0047 21.1537 19.6193 19.7045 19.6193 17.4543L19.6193 6.54569C19.6193 4.29548 22.0047 2.84627 24.0017 3.8832L34.5063 9.33751Z" fill="white"/>
</g>
<g filter="url(#filter1_d_109_3)">
<path d="M4.82581 12.9412C4.82581 11.3168 6.14262 10 7.76698 10H11.2073L16.0935 10.3828C16.9376 10.449 17.5889 11.1533 17.5889 12C17.5889 12.8467 16.9376 13.551 16.0935 13.6172L11.2073 14H5.88463C5.29986 14 4.82581 13.5259 4.82581 12.9412Z" fill="white"/>
</g>
<defs>
<filter id="filter0_d_109_3" x="15.6193" y="3.54163" width="24.5046" height="24.9167" filterUnits="userSpaceOnUse" color-interpolation-filters="sRGB">
<feFlood flood-opacity="0" result="BackgroundImageFix"/>
<feColorMatrix in="SourceAlpha" type="matrix" values="0 0 0 0 0 0 0 0 0 0 0 0 0 0 0 0 0 0 127 0" result="hardAlpha"/>
<feOffset dy="4"/>
<feGaussianBlur stdDeviation="2"/>
<feComposite in2="hardAlpha" operator="out"/>
<feColorMatrix type="matrix" values="0 0 0 0 1 0 0 0 0 1 0 0 0 0 1 0 0 0 0.25 0"/>
<feBlend mode="normal" in2="BackgroundImageFix" result="effect1_dropShadow_109_3"/>
<feBlend mode="normal" in="SourceGraphic" in2="effect1_dropShadow_109_3" result="shape"/>
</filter>
<filter id="filter1_d_109_3" x="0.825806" y="10" width="20.7631" height="12" filterUnits="userSpaceOnUse" color-interpolation-filters="sRGB">
<feFlood flood-opacity="0" result="BackgroundImageFix"/>
<feColorMatrix in="SourceAlpha" type="matrix" values="0 0 0 0 0 0 0 0 0 0 0 0 0 0 0 0 0 0 127 0" result="hardAlpha"/>
<feOffset dy="4"/>
<feGaussianBlur stdDeviation="2"/>
<feComposite in2="hardAlpha" operator="out"/>
<feColorMatrix type="matrix" values="0 0 0 0 1 0 0 0 0 1 0 0 0 0 1 0 0 0 0.25 0"/>
<feBlend mode="normal" in2="BackgroundImageFix" result="effect1_dropShadow_109_3"/>
<feBlend mode="normal" in="SourceGraphic" in2="effect1_dropShadow_109_3" result="shape"/>
</filter>
</defs>
</svg>
