<svg width="120" height="72" viewBox="0 0 120 72" fill="none" xmlns="http://www.w3.org/2000/svg">
<path d="M46.824 52.36L41.88 24.664L27.048 52.36H21.24L39.672 19H46.008L52.68 52.36H46.824Z" fill="white"/>
<path d="M83.64 19.64L82.872 23.912H68.712L66.936 34.04H77.976L77.208 38.264H66.168L63.576 53H58.104L64.008 19.64H83.64Z" fill="white"/>
<path d="M93.168 21.44L81.864 47.984H80.208L91.464 21.44H93.168Z" fill="white"/>
<path d="M14.4 46.568L5.28 35.672L18.24 24.776H25.152L12.144 35.672L21.312 46.568H14.4Z" fill="white"/>
<path d="M98.72 25.16H107.216L115.76 35.912L103.424 46.664H94.928L107.312 35.912L98.72 25.16Z" fill="white"/>
</svg>
