<svg width="34" height="34" viewBox="0 0 34 34" fill="none" xmlns="http://www.w3.org/2000/svg">
<path d="M29.0714 13.5333H4.92857C4.41786 13.5333 4 13.9233 4 14.4V27.4C4 28.83 5.25357 30 6.78571 30H27.2143C28.7464 30 30 28.83 30 27.4V14.4C30 13.9233 29.5821 13.5333 29.0714 13.5333ZM12.3571 25.6667C12.3571 26.1433 11.9393 26.5333 11.4286 26.5333H9.57143C9.06071 26.5333 8.64286 26.1433 8.64286 25.6667V23.9333C8.64286 23.4567 9.06071 23.0667 9.57143 23.0667H11.4286C11.9393 23.0667 12.3571 23.4567 12.3571 23.9333V25.6667ZM18.8571 25.6667C18.8571 26.1433 18.4393 26.5333 17.9286 26.5333H16.0714C15.5607 26.5333 15.1429 26.1433 15.1429 25.6667V23.9333C15.1429 23.4567 15.5607 23.0667 16.0714 23.0667H17.9286C18.4393 23.0667 18.8571 23.4567 18.8571 23.9333V25.6667ZM18.8571 19.6C18.8571 20.0767 18.4393 20.4667 17.9286 20.4667H16.0714C15.5607 20.4667 15.1429 20.0767 15.1429 19.6V17.8667C15.1429 17.39 15.5607 17 16.0714 17H17.9286C18.4393 17 18.8571 17.39 18.8571 17.8667V19.6ZM25.3571 19.6C25.3571 20.0767 24.9393 20.4667 24.4286 20.4667H22.5714C22.0607 20.4667 21.6429 20.0767 21.6429 19.6V17.8667C21.6429 17.39 22.0607 17 22.5714 17H24.4286C24.9393 17 25.3571 17.39 25.3571 17.8667V19.6ZM27.2143 6.6H24.8929V5.73333C24.8929 4.78 24.0571 4 23.0357 4C22.0143 4 21.1786 4.78 21.1786 5.73333V6.6H12.8214V5.73333C12.8214 4.78 11.9857 4 10.9643 4C9.94286 4 9.10714 4.78 9.10714 5.73333V6.6H6.78571C5.25357 6.6 4 7.77 4 9.2V10.0667C4 10.5433 4.41786 10.9333 4.92857 10.9333H29.0714C29.5821 10.9333 30 10.5433 30 10.0667V9.2C30 7.77 28.7464 6.6 27.2143 6.6Z" fill="white" fill-opacity="0.58"/>
</svg>
