<svg width="34" height="34" viewBox="0 0 34 34" fill="none" xmlns="http://www.w3.org/2000/svg">
<path opacity="0.5" d="M2.83334 17.2889C2.83334 14.047 2.83334 12.426 3.56887 11.0823C4.3044 9.7385 5.64818 8.90451 8.33571 7.23656L11.169 5.47811C14.01 3.71495 15.4305 2.83337 17 2.83337C18.5695 2.83337 19.99 3.71495 22.831 5.47811L25.6643 7.23654C28.3519 8.90451 29.6956 9.7385 30.4311 11.0823C31.1667 12.426 31.1667 14.047 31.1667 17.2889V19.4438C31.1667 24.9699 31.1667 27.7331 29.5069 29.4498C27.8473 31.1667 25.1759 31.1667 19.8333 31.1667H14.1667C8.82408 31.1667 6.1528 31.1667 4.49306 29.4498C2.83334 27.7331 2.83334 24.9699 2.83334 19.4438V17.2889Z" fill="white"/>
<path d="M12.75 24.4375C12.1632 24.4375 11.6875 24.9132 11.6875 25.5C11.6875 26.0868 12.1632 26.5625 12.75 26.5625H21.25C21.8368 26.5625 22.3125 26.0868 22.3125 25.5C22.3125 24.9132 21.8368 24.4375 21.25 24.4375H12.75Z" fill="white" fill-opacity="0.7"/>
</svg>
