<svg width="33" height="33" viewBox="0 0 33 33" fill="none" xmlns="http://www.w3.org/2000/svg">
<path fill-rule="evenodd" clip-rule="evenodd" d="M28.6403 14.7337L27.9284 17.39C27.0977 20.4908 26.6821 22.0411 25.7404 23.0466C24.9968 23.8406 24.0344 24.3962 22.9751 24.6432C22.8427 24.6741 22.7084 24.6979 22.5706 24.7148C21.3124 24.87 19.7772 24.4586 16.9823 23.7098C13.8816 22.8789 12.3312 22.4635 11.3257 21.5218C10.5317 20.7782 9.97613 19.8158 9.72913 18.7564C9.41629 17.4146 9.8317 15.8643 10.6625 12.7636L11.3743 10.1073C11.4938 9.66149 11.6047 9.24742 11.7098 8.86271C12.3355 6.57191 12.756 5.3116 13.5623 4.4507C14.3059 3.65674 15.2683 3.10113 16.3277 2.85413C17.6693 2.54129 19.2197 2.9567 22.3205 3.78755C25.4211 4.61839 26.9716 5.0338 27.9771 5.97557C28.771 6.71918 29.3267 7.68153 29.5736 8.74091C29.8864 10.0826 29.4711 11.633 28.6403 14.7337ZM15.197 13.4831C15.3444 12.933 15.91 12.6065 16.4601 12.7539L23.1008 14.5333C23.651 14.6807 23.9774 15.2461 23.83 15.7963C23.6826 16.3464 23.1172 16.6728 22.567 16.5254L15.9262 14.746C15.3761 14.5986 15.0496 14.0332 15.197 13.4831ZM14.1289 17.467C14.2763 16.9169 14.8417 16.5905 15.3919 16.7379L19.3764 17.8056C19.9265 17.953 20.2529 18.5184 20.1055 19.0685C19.9581 19.6186 19.3927 19.9452 18.8426 19.7978L14.8581 18.7301C14.308 18.5827 13.9814 18.0172 14.1289 17.467Z" fill="white" fill-opacity="0.9"/>
<path opacity="0.5" d="M22.5705 24.7149C22.2838 25.5926 21.7797 26.3867 21.1021 27.0214C20.0966 27.9631 18.5461 28.3785 15.4455 29.2094C12.3447 30.0402 10.7944 30.4557 9.45266 30.1428C8.39329 29.8958 7.43094 29.3402 6.68733 28.5462C5.74556 27.5407 5.33014 25.9904 4.4993 22.8896L3.78755 20.2334C2.9567 17.1326 2.54129 15.5822 2.85413 14.2406C3.10113 13.1812 3.65674 12.2188 4.4507 11.4752C5.45621 10.5334 7.00657 10.118 10.1073 9.28718C10.6939 9.13 11.2251 8.98767 11.7098 8.86234C11.7097 8.86249 11.7098 8.86221 11.7098 8.86234C11.6047 9.24705 11.4938 9.66153 11.3743 10.1074L10.6625 12.7637C9.8317 15.8643 9.41629 17.4148 9.72913 18.7565C9.97613 19.8158 10.5317 20.7782 11.3257 21.5218C12.3312 22.4635 13.8816 22.879 16.9823 23.7098C19.777 24.4586 21.3124 24.87 22.5705 24.7149Z" fill="white"/>
</svg>
